<svg width="402" height="200" viewBox="0 0 402 200" fill="none" xmlns="http://www.w3.org/2000/svg">
<rect width="402" height="200" fill="#33343D"/>
<rect x="153.588" y="92.3135" width="10.6545" height="15.2207" rx="5.32725" fill="white"/>
<rect width="13.2362" height="12.2277" rx="6.11387" transform="matrix(0.642788 -0.766044 -0.766044 -0.642788 234.948 70.9186)" fill="white"/>
<rect width="13.2362" height="12.2277" rx="6.11387" transform="matrix(0.642788 0.766044 0.766044 -0.642788 225.581 136.703)" fill="white"/>
<circle cx="201" cy="100" r="50" fill="white"/>
<circle cx="200.93" cy="99.9298" r="42.2822" fill="#33343D"/>
<circle cx="201" cy="100" r="16.3623" fill="white"/>
<rect x="189.178" y="114.02" width="3.04414" height="16.7428" rx="1.52207" transform="rotate(-135 189.178 114.02)" fill="white"/>
<rect x="182.269" y="122.544" width="5.32725" height="15.9817" rx="2.66362" transform="rotate(-135 182.269 122.544)" fill="white"/>
<rect x="212.867" y="86.0254" width="3.04414" height="16.7428" rx="1.52207" transform="rotate(45 212.867 86.0254)" fill="white"/>
<rect x="219.777" y="77.5018" width="5.32725" height="15.9817" rx="2.66362" transform="rotate(45 219.777 77.5018)" fill="white"/>
<rect x="215.02" y="111.867" width="3.04414" height="16.7428" rx="1.52207" transform="rotate(135 215.02 111.867)" fill="white"/>
<rect x="223.544" y="118.777" width="5.32725" height="15.9817" rx="2.66362" transform="rotate(135 223.544 118.777)" fill="white"/>
<rect x="187.025" y="88.178" width="3.04414" height="16.7428" rx="1.52207" transform="rotate(-45 187.025 88.178)" fill="white"/>
<rect x="178.502" y="81.2688" width="5.32725" height="15.9817" rx="2.66362" transform="rotate(-45 178.502 81.2688)" fill="white"/>
<g filter="url(#filter0_d_543_1378)">
<circle cx="201.003" cy="100.003" r="16.6187" fill="#C44646"/>
</g>
<defs>
<filter id="filter0_d_543_1378" x="159.385" y="58.3846" width="83.2375" height="83.2375" filterUnits="userSpaceOnUse" color-interpolation-filters="sRGB">
<feFlood flood-opacity="0" result="BackgroundImageFix"/>
<feColorMatrix in="SourceAlpha" type="matrix" values="0 0 0 0 0 0 0 0 0 0 0 0 0 0 0 0 0 0 127 0" result="hardAlpha"/>
<feMorphology radius="5" operator="dilate" in="SourceAlpha" result="effect1_dropShadow_543_1378"/>
<feOffset/>
<feGaussianBlur stdDeviation="10"/>
<feComposite in2="hardAlpha" operator="out"/>
<feColorMatrix type="matrix" values="0 0 0 0 1 0 0 0 0 0 0 0 0 0 0 0 0 0 0.25 0"/>
<feBlend mode="normal" in2="BackgroundImageFix" result="effect1_dropShadow_543_1378"/>
<feBlend mode="normal" in="SourceGraphic" in2="effect1_dropShadow_543_1378" result="shape"/>
</filter>
</defs>
</svg>
