<svg xmlns="http://www.w3.org/2000/svg" xmlns:xlink="http://www.w3.org/1999/xlink" width="1080" zoomAndPan="magnify" viewBox="0 0 810 809.999993" height="1080" preserveAspectRatio="xMidYMid meet" version="1.0"><defs><clipPath id="080816a004"><path d="M 249 271.570312 L 560 271.570312 L 560 531 L 249 531 Z M 249 271.570312 " clip-rule="nonzero"/></clipPath></defs><g clip-path="url(#080816a004)"><path fill="#ffffff" d="M 434.976562 527.070312 L 559.523438 401.875 L 434.976562 276.679688 C 433.851562 275.203125 432.421875 273.984375 430.785156 273.105469 C 429.148438 272.230469 427.34375 271.714844 425.488281 271.597656 C 423.636719 271.480469 421.78125 271.761719 420.046875 272.421875 C 418.308594 273.082031 416.738281 274.109375 415.433594 275.433594 C 414.132812 276.753906 413.125 278.339844 412.492188 280.085938 C 411.851562 281.828125 411.597656 283.691406 411.742188 285.542969 C 411.886719 287.390625 412.429688 289.191406 413.328125 290.8125 C 414.230469 292.4375 415.46875 293.851562 416.960938 294.953125 L 510.144531 388.914062 L 262.214844 388.914062 C 258.777344 388.914062 255.480469 390.28125 253.050781 392.710938 C 250.621094 395.140625 249.253906 398.4375 249.253906 401.875 C 249.253906 405.3125 250.621094 408.609375 253.050781 411.039062 C 255.480469 413.472656 258.777344 414.835938 262.214844 414.835938 L 510.144531 414.835938 L 416.960938 508.796875 C 414.535156 511.238281 413.183594 514.542969 413.195312 517.980469 C 413.207031 521.421875 414.585938 524.714844 417.023438 527.136719 C 419.464844 529.558594 422.769531 530.914062 426.207031 530.902344 C 429.648438 530.890625 432.941406 529.511719 435.363281 527.070312 Z M 434.976562 527.070312 " fill-opacity="1" fill-rule="nonzero"/></g></svg>