<svg xmlns="http://www.w3.org/2000/svg" xmlns:xlink="http://www.w3.org/1999/xlink" width="1080" zoomAndPan="magnify" viewBox="0 0 810 809.999993" height="1080" preserveAspectRatio="xMidYMid meet" version="1.0"><defs><clipPath id="70fef3cce9"><path d="M 244 271.574219 L 555 271.574219 L 555 532 L 244 532 Z M 244 271.574219 " clip-rule="nonzero"/></clipPath></defs><g clip-path="url(#70fef3cce9)"><path fill="#4f4f4f" d="M 429.808594 527.222656 L 554.40625 401.953125 L 429.808594 276.6875 C 428.683594 275.207031 427.253906 273.988281 425.617188 273.113281 C 423.980469 272.234375 422.171875 271.71875 420.320312 271.601562 C 418.464844 271.484375 416.609375 271.765625 414.875 272.425781 C 413.136719 273.089844 411.566406 274.117188 410.261719 275.4375 C 408.957031 276.761719 407.953125 278.347656 407.316406 280.09375 C 406.675781 281.839844 406.421875 283.699219 406.566406 285.554688 C 406.710938 287.40625 407.253906 289.203125 408.152344 290.828125 C 409.054688 292.453125 410.292969 293.867188 411.785156 294.972656 L 505.007812 388.984375 L 256.976562 388.984375 C 253.539062 388.984375 250.242188 390.351562 247.808594 392.785156 C 245.378906 395.214844 244.011719 398.515625 244.011719 401.953125 C 244.011719 405.394531 245.378906 408.691406 247.808594 411.125 C 250.242188 413.554688 253.539062 414.921875 256.976562 414.921875 L 505.007812 414.921875 L 411.785156 508.9375 C 409.363281 511.378906 408.007812 514.683594 408.019531 518.125 C 408.03125 521.566406 409.410156 524.863281 411.851562 527.285156 C 414.292969 529.710938 417.597656 531.066406 421.039062 531.054688 C 424.480469 531.042969 427.773438 529.664062 430.199219 527.222656 Z M 429.808594 527.222656 " fill-opacity="1" fill-rule="nonzero"/></g></svg>