<svg xmlns="http://www.w3.org/2000/svg" xmlns:xlink="http://www.w3.org/1999/xlink" width="1080" zoomAndPan="magnify" viewBox="0 0 810 809.999993" height="1080" preserveAspectRatio="xMidYMid meet" version="1.0"><defs><clipPath id="aaf9ff0d7d"><path d="M 243 271.574219 L 554 271.574219 L 554 532 L 243 532 Z M 243 271.574219 " clip-rule="nonzero"/></clipPath></defs><g clip-path="url(#aaf9ff0d7d)"><path fill="#4f4f4f" d="M 367.726562 275.40625 L 243.128906 400.675781 L 367.726562 525.945312 C 368.851562 527.421875 370.28125 528.640625 371.917969 529.519531 C 373.554688 530.394531 375.363281 530.910156 377.21875 531.027344 C 379.070312 531.148438 380.925781 530.863281 382.664062 530.203125 C 384.398438 529.542969 385.972656 528.515625 387.277344 527.191406 C 388.578125 525.867188 389.585938 524.28125 390.222656 522.535156 C 390.859375 520.789062 391.113281 518.929688 390.96875 517.078125 C 390.824219 515.226562 390.28125 513.425781 389.382812 511.800781 C 388.480469 510.175781 387.242188 508.761719 385.75 507.660156 L 292.527344 413.644531 L 540.558594 413.644531 C 543.996094 413.644531 547.296875 412.277344 549.726562 409.84375 C 552.15625 407.414062 553.523438 404.117188 553.523438 400.675781 C 553.523438 397.238281 552.15625 393.9375 549.726562 391.507812 C 547.296875 389.074219 543.996094 387.707031 540.558594 387.707031 L 292.527344 387.707031 L 385.75 293.691406 C 388.171875 291.25 389.527344 287.945312 389.515625 284.503906 C 389.503906 281.0625 388.125 277.769531 385.683594 275.34375 C 383.242188 272.917969 379.9375 271.5625 376.496094 271.574219 C 373.058594 271.585938 369.761719 272.964844 367.339844 275.40625 Z M 367.726562 275.40625 " fill-opacity="1" fill-rule="nonzero"/></g></svg>