<svg xmlns="http://www.w3.org/2000/svg" xmlns:xlink="http://www.w3.org/1999/xlink" width="1080" zoomAndPan="magnify" viewBox="0 0 810 809.999993" height="1080" preserveAspectRatio="xMidYMid meet" version="1.0"><defs><clipPath id="dcad0eb9aa"><path d="M 246 271.574219 L 557 271.574219 L 557 531 L 246 531 Z M 246 271.574219 " clip-rule="nonzero"/></clipPath></defs><g clip-path="url(#dcad0eb9aa)"><path fill="#ffffff" d="M 370.667969 275.40625 L 246.117188 400.601562 L 370.667969 525.796875 C 371.792969 527.277344 373.21875 528.492188 374.855469 529.371094 C 376.492188 530.246094 378.300781 530.761719 380.152344 530.878906 C 382.003906 531 383.863281 530.71875 385.597656 530.054688 C 387.332031 529.394531 388.902344 528.367188 390.207031 527.046875 C 391.511719 525.722656 392.515625 524.136719 393.152344 522.390625 C 393.789062 520.648438 394.042969 518.789062 393.898438 516.9375 C 393.753906 515.085938 393.210938 513.289062 392.3125 511.664062 C 391.414062 510.039062 390.171875 508.628906 388.679688 507.523438 L 295.496094 413.5625 L 543.425781 413.5625 C 546.863281 413.5625 550.160156 412.195312 552.589844 409.765625 C 555.023438 407.335938 556.386719 404.039062 556.386719 400.601562 C 556.386719 397.164062 555.023438 393.867188 552.589844 391.4375 C 550.160156 389.007812 546.863281 387.640625 543.425781 387.640625 L 295.496094 387.640625 L 388.679688 293.679688 C 391.105469 291.238281 392.460938 287.9375 392.445312 284.496094 C 392.433594 281.058594 391.058594 277.765625 388.617188 275.339844 C 386.175781 272.917969 382.871094 271.5625 379.433594 271.574219 C 375.996094 271.585938 372.699219 272.964844 370.277344 275.40625 Z M 370.667969 275.40625 " fill-opacity="1" fill-rule="nonzero"/></g></svg>