<svg xmlns="http://www.w3.org/2000/svg" xmlns:xlink="http://www.w3.org/1999/xlink" width="1080" zoomAndPan="magnify" viewBox="0 0 810 809.999993" height="1080" preserveAspectRatio="xMidYMid meet" version="1.0"><defs><clipPath id="c46ecb7108"><path d="M 249 271.570312 L 560 271.570312 L 560 531 L 249 531 Z M 249 271.570312 " clip-rule="nonzero"/></clipPath><clipPath id="abdffd9dc8"><path d="M 247 272.171875 L 567 272.171875 L 567 539 L 247 539 Z M 247 272.171875 " clip-rule="nonzero"/></clipPath></defs><g clip-path="url(#c46ecb7108)"><path fill="#ffffff" d="M 434.976562 527.070312 L 559.523438 401.875 L 434.976562 276.679688 C 433.851562 275.203125 432.421875 273.984375 430.785156 273.105469 C 429.148438 272.230469 427.34375 271.714844 425.488281 271.597656 C 423.636719 271.480469 421.78125 271.761719 420.046875 272.421875 C 418.308594 273.082031 416.738281 274.109375 415.433594 275.433594 C 414.132812 276.753906 413.125 278.339844 412.492188 280.085938 C 411.851562 281.828125 411.597656 283.691406 411.742188 285.542969 C 411.886719 287.390625 412.429688 289.191406 413.328125 290.8125 C 414.230469 292.4375 415.46875 293.851562 416.960938 294.953125 L 510.144531 388.914062 L 262.214844 388.914062 C 258.777344 388.914062 255.480469 390.28125 253.050781 392.710938 C 250.621094 395.140625 249.253906 398.4375 249.253906 401.875 C 249.253906 405.3125 250.621094 408.609375 253.050781 411.039062 C 255.480469 413.472656 258.777344 414.835938 262.214844 414.835938 L 510.144531 414.835938 L 416.960938 508.796875 C 414.535156 511.238281 413.183594 514.542969 413.195312 517.980469 C 413.207031 521.421875 414.585938 524.714844 417.023438 527.136719 C 419.464844 529.558594 422.769531 530.914062 426.207031 530.902344 C 429.648438 530.890625 432.941406 529.511719 435.363281 527.070312 Z M 434.976562 527.070312 " fill-opacity="1" fill-rule="nonzero"/></g><g clip-path="url(#abdffd9dc8)"><path fill="#ffffff" d="M 375.523438 276.105469 L 247.671875 404.621094 L 375.523438 533.140625 C 376.679688 534.65625 378.144531 535.90625 379.824219 536.808594 C 381.503906 537.707031 383.359375 538.234375 385.261719 538.355469 C 387.164062 538.476562 389.066406 538.1875 390.847656 537.511719 C 392.628906 536.832031 394.242188 535.777344 395.582031 534.417969 C 396.921875 533.0625 397.949219 531.433594 398.605469 529.644531 C 399.257812 527.851562 399.519531 525.941406 399.371094 524.042969 C 399.222656 522.144531 398.667969 520.296875 397.742188 518.628906 C 396.820312 516.964844 395.546875 515.515625 394.015625 514.378906 L 298.359375 417.925781 L 552.867188 417.925781 C 556.394531 417.925781 559.777344 416.523438 562.273438 414.03125 C 564.769531 411.535156 566.171875 408.152344 566.171875 404.621094 C 566.171875 401.09375 564.769531 397.710938 562.273438 395.214844 C 559.777344 392.71875 556.394531 391.316406 552.867188 391.316406 L 298.359375 391.316406 L 394.015625 294.863281 C 396.503906 292.359375 397.894531 288.96875 397.882812 285.4375 C 397.867188 281.90625 396.453125 278.527344 393.949219 276.039062 C 391.445312 273.550781 388.054688 272.160156 384.523438 272.171875 C 380.992188 272.1875 377.613281 273.601562 375.125 276.105469 Z M 375.523438 276.105469 " fill-opacity="1" fill-rule="nonzero"/></g></svg>